<?xml version="1.0" standalone="no"?>
<!DOCTYPE svg PUBLIC "-//W3C//DTD SVG 20010904//EN"
 "http://www.w3.org/TR/2001/REC-SVG-20010904/DTD/svg10.dtd">
<svg version="1.0" xmlns="http://www.w3.org/2000/svg"
 width="500.000000pt" height="500.000000pt" viewBox="0 0 500.000000 500.000000"
 preserveAspectRatio="xMidYMid meet">
<metadata>
Created by potrace 1.11, written by Peter Selinger 2001-2013
</metadata>
<g transform="translate(0.000000,500.000000) scale(0.100000,-0.100000)"
fill="#000000" stroke="none">
<path d="M0 2500 l0 -2500 2500 0 2500 0 0 2500 0 2500 -2500 0 -2500 0 0
-2500z m2557 971 c32 -11 111 -36 176 -56 l117 -36 0 -118 c0 -261 -100 -451
-284 -540 -77 -38 -95 -35 -193 28 -155 100 -233 272 -233 512 l0 118 163 51
c89 28 167 53 172 55 18 6 24 5 82 -14z m-129 -1137 c38 -25 62 -74 62 -129 0
-93 -56 -146 -153 -146 -104 0 -148 38 -155 133 -7 91 24 139 103 159 40 10
114 1 143 -17z m357 -2 c84 -49 86 -201 3 -252 -24 -14 -50 -20 -97 -20 -76 0
-122 23 -142 73 -29 68 -7 171 44 198 58 32 137 32 192 1z m645 -1 c14 -10 26
-30 28 -44 3 -25 1 -27 -38 -27 -27 0 -43 5 -46 15 -7 17 -59 20 -70 4 -9 -15
7 -24 70 -38 69 -15 96 -41 96 -90 0 -70 -69 -105 -174 -89 -55 8 -81 29 -91
71 -7 26 -6 27 37 27 32 0 46 -5 56 -20 13 -21 47 -26 71 -11 23 15 4 29 -54
41 -75 16 -105 41 -105 90 0 46 23 76 70 89 46 13 119 4 150 -18z m-1659 -10
c20 -20 29 -40 29 -61 0 -69 -47 -110 -126 -110 -34 0 -34 -1 -34 -45 l0 -45
-50 0 -50 0 0 145 0 145 101 0 c98 0 101 -1 130 -29z m312 18 c51 -23 62 -95
20 -137 l-26 -26 32 -58 32 -58 -54 0 -53 0 -27 55 c-15 30 -34 55 -42 55 -12
0 -15 -13 -15 -55 l0 -55 -50 0 -50 0 0 145 0 145 105 0 c57 0 115 -5 128 -11z
m1048 -18 c20 -20 29 -40 29 -61 0 -69 -47 -110 -126 -110 -34 0 -34 -1 -34
-45 l0 -45 -50 0 -50 0 0 145 0 145 101 0 c98 0 101 -1 130 -29z m-817 -553
c18 -25 21 -48 7 -48 -5 0 -12 12 -15 26 -6 21 -12 25 -38 22 -28 -3 -33 -8
-40 -38 -16 -76 16 -134 62 -110 11 6 20 17 20 25 0 8 5 15 10 15 15 0 12 -21
-7 -42 -20 -22 -61 -23 -85 -1 -24 22 -26 128 -1 155 23 25 68 23 87 -4z m162
-28 c10 -27 21 -50 25 -50 3 0 16 24 29 53 12 28 24 47 27 41 2 -6 -8 -37 -22
-69 -14 -32 -25 -70 -25 -86 0 -16 -4 -29 -10 -29 -5 0 -10 15 -10 34 0 18
-11 59 -25 90 -28 63 -29 66 -16 66 5 0 17 -22 27 -50z m283 13 c6 -21 17 -60
26 -88 17 -58 18 -65 6 -65 -5 0 -12 11 -15 25 -5 20 -12 25 -40 25 -28 0 -35
-5 -40 -25 -4 -14 -11 -25 -17 -25 -6 0 -9 7 -6 15 4 8 16 50 28 95 24 88 42
102 58 43z"/>
<path d="M2389 3261 c-58 -37 -89 -86 -96 -155 -8 -73 28 -150 88 -192 61 -42
149 -46 216 -10 139 76 147 268 14 356 -38 26 -54 30 -111 30 -56 0 -73 -5
-111 -29z m256 -81 c19 -21 17 -22 -85 -125 -58 -58 -109 -105 -115 -105 -6 0
-34 24 -63 53 l-52 53 26 24 26 25 26 -33 c15 -18 32 -32 37 -32 6 0 46 36 90
80 44 44 82 80 86 80 3 0 14 -9 24 -20z"/>
<path d="M2295 2265 c-49 -48 -24 -135 39 -135 43 0 61 22 61 77 0 35 -5 49
-24 64 -31 25 -47 24 -76 -6z"/>
<path d="M2670 2283 c-27 -9 -40 -36 -40 -79 0 -51 20 -74 64 -74 44 0 56 16
56 76 0 43 -4 56 -22 68 -23 17 -33 18 -58 9z"/>
<path d="M1640 2250 c0 -25 4 -30 25 -30 25 0 46 26 38 48 -3 6 -18 12 -34 12
-26 0 -29 -4 -29 -30z"/>
<path d="M1950 2259 c0 -29 2 -30 37 -27 65 5 56 57 -9 58 -25 0 -28 -4 -28
-31z"/>
<path d="M3000 2250 c0 -25 4 -30 25 -30 25 0 46 26 38 48 -3 6 -18 12 -34 12
-26 0 -29 -4 -29 -30z"/>
<path d="M2722 1722 c-17 -55 -15 -62 14 -62 25 0 26 2 19 38 -11 61 -20 67
-33 24z"/>
</g>
</svg>
